HIERARCHY
ROOT Hips
{
    OFFSET 0.0 0.0 0.0
    CHANNELS 6 Xposition Yposition Zposition Zrotation Xrotation Yrotation
    JOINT LeftHipJoint
    {
        OFFSET 0.1 0.0 0.0
        CHANNELS 3 Zrotation Xrotation Yrotation
        JOINT LeftUpLeg
        {
            OFFSET 120.32794273535362 0.0 0.0
            CHANNELS 3 Zrotation Xrotation Yrotation
            JOINT LeftLeg
            {
                OFFSET 0.0 0.0 -405.499674992113
                CHANNELS 3 Zrotation Xrotation Yrotation
                JOINT LeftFoot
                {
                    OFFSET 0.0 0.0 -403.12628003637553
                    CHANNELS 3 Zrotation Xrotation Yrotation
                    End Site
                    {
                        OFFSET 0.0 -0.1 0.0
                    }
                }
            }
        }
    }
    JOINT LowerBack
    {
        OFFSET 0.0 0.0 0.1
        CHANNELS 3 Zrotation Xrotation Yrotation
        JOINT Spine
        {
            OFFSET 0.0 0.0 217.02317871897847
            CHANNELS 3 Zrotation Xrotation Yrotation
            JOINT Spine1
            {
                OFFSET 0.0 0.0 252.984850472228
                CHANNELS 3 Zrotation Xrotation Yrotation
                JOINT LeftShoulder
                {
                    OFFSET 0.1 0.0 0.0
                    CHANNELS 3 Zrotation Xrotation Yrotation
                    JOINT LeftArm
                    {
                        OFFSET 146.12876439043163 0.0 0.0
                        CHANNELS 3 Zrotation Xrotation Yrotation
                        JOINT LeftForeArm
                        {
                            OFFSET 265.2051338125309 0.0 0.0
                            CHANNELS 3 Zrotation Xrotation Yrotation
                            JOINT LeftHand
                            {
                                OFFSET 234.68617229341618 0.0 0.0
                                CHANNELS 3 Zrotation Xrotation Yrotation
                                End Site
                                {
                                    OFFSET 0.1 0.0 0.0
                                }
                            }
                        }
                    }
                }
                JOINT Neck
                {
                    OFFSET 0.0 0.0 0.1
                    CHANNELS 3 Zrotation Xrotation Yrotation
                    JOINT Neck1
                    {
                        OFFSET 0.0 0.0 107.26398730901076
                        CHANNELS 3 Zrotation Xrotation Yrotation
                        End Site
                        {
                            OFFSET 0.0 0.0 107.92729113294396
                        }
                    }
                }
                JOINT RightShoulder
                {
                    OFFSET -0.1 0.0 0.0
                    CHANNELS 3 Zrotation Xrotation Yrotation
                    JOINT RightArm
                    {
                        OFFSET -146.12876439043163 0.0 0.0
                        CHANNELS 3 Zrotation Xrotation Yrotation
                        JOINT RightForeArm
                        {
                            OFFSET -265.2051338125309 0.0 0.0
                            CHANNELS 3 Zrotation Xrotation Yrotation
                            JOINT RightHand
                            {
                                OFFSET -234.68617229341618 0.0 0.0
                                CHANNELS 3 Zrotation Xrotation Yrotation
                                End Site
                                {
                                    OFFSET -0.1 0.0 0.0
                                }
                            }
                        }
                    }
                }
            }
        }
    }
    JOINT RightHipJoint
    {
        OFFSET -0.1 0.0 0.0
        CHANNELS 3 Zrotation Xrotation Yrotation
        JOINT RightUpLeg
        {
            OFFSET -120.32794273535362 0.0 0.0
            CHANNELS 3 Zrotation Xrotation Yrotation
            JOINT RightLeg
            {
                OFFSET 0.0 0.0 -405.499674992113
                CHANNELS 3 Zrotation Xrotation Yrotation
                JOINT RightFoot
                {
                    OFFSET 0.0 0.0 -403.12628003637553
                    CHANNELS 3 Zrotation Xrotation Yrotation
                    End Site
                    {
                        OFFSET 0.0 -0.1 0.0
                    }
                }
            }
        }
    }
}
MOTION
Frames: 4
Frame Time: 0.03333333333333333
0.0 0.0 825.99449341317 28.370004631135075 -0.24477491465128984 2.1048554320713944 0.0 0.0 2.4848083448933725e-17 0.23322509854094206 -12.719536508654949 -1.0639663477923382 -0.9862912307990256 24.97529678543708 0.5954303331962473 0.0 -1.987846675914698e-16 0.0 0.0 0.0 2.4848083448933725e-17 0.11700987766678929 -6.518269558282182 6.226274908706234 7.6592131094936144 -2.3736088586908477e-16 2.406643042110361e-15 6.3611093629270335e-15 -4.4139062980501586e-32 -7.951386703658792e-16 -60.274607038975155 57.10344213459078 88.09571384634397 -92.73739394650022 -6.5838921312901846e-15 -6.906208593689499e-15 0.0 0.0 1.5902773407317584e-15 6.3611093629270335e-15 -4.4139062980501586e-32 -7.951386703658792e-16 -12.78108360712851 -6.134369973756232 4.250273420185498 6.3611093629270335e-15 -4.4139062980501586e-32 -7.951386703658792e-16 21.937075838002805 -61.1017480439426 -14.884267073582865 118.50822621483111 -1.0345009812354053e-14 4.948518671828143e-15 0.0 0.0 0.0 0.0 0.0 2.4848083448933725e-17 0.11970366457253637 -6.765599021122435 2.3428143047402354 0.5574948540208595 22.980944548489674 -2.5045052502936618 -1.3793457181406746e-33 1.9878466759146977e-16 7.951386703658791e-16
0.0 0.0 825.99449341317 28.351084702423993 -0.2453606694678256 2.0536805484610614 2.155227684594804e-35 -9.93923337957349e-17 2.4848083448933725e-17 0.24784786792016336 -12.691047637048424 -1.022249220486655 -0.9886730337516794 24.75136986838979 0.6507260012687417 0.0 0.0 0.0 2.155227684594804e-35 -9.93923337957349e-17 2.4848083448933725e-17 0.1235484368033855 -6.459781122391448 6.292530489154834 7.706617701027133 -4.733329405906127e-15 7.172811829861592e-16 0.0 0.0 0.0 -60.065664261805864 57.00009843405721 87.7845120939141 -92.62305348457322 2.1969266426919257e-15 2.2998785638398113e-15 3.1805546814635168e-15 -6.620859447075238e-32 -2.3854160110976376e-15 0.0 0.0 0.0 -12.8604598794892 -6.299331501878315 4.076546815028354 0.0 0.0 0.0 21.657463294507085 -61.04630834861397 -15.12711460131749 118.47554451382008 0.0 0.0 0.0 0.0 0.0 2.155227684594804e-35 -9.93923337957349e-17 2.4848083448933725e-17 0.1256933779592435 -6.665743754146341 2.3727584270014836 0.5365691123950325 22.787953956288096 -2.3834024447832913 0.0 0.0 0.0
0.0 0.0 825.99449341317 28.342327689243614 -0.3399291512796708 1.9979160127630522 0.0 0.0 -4.472655020808071e-16 0.24663696236386934 -12.586258783643343 -0.9400931616584022 -0.9541569318545822 24.792954147337035 0.6505569935645029 0.0 0.0 3.975693351829396e-16 0.0 0.0 -4.472655020808071e-16 0.12259217732864201 -6.387951242343747 6.365979302221106 7.753308060338778 -1.075166863190873e-16 -1.5866386427311786e-15 0.0 0.0 0.0 -59.99228741174923 57.01254734882677 87.511975989851 -92.67053696876143 -4.496762160124528e-15 -1.0481526048801598e-16 -3.1805546814635168e-15 -4.4139062980501586e-32 1.5902773407317584e-15 0.0 0.0 0.0 -12.926436648861804 -6.299657697837749 3.949593705677312 0.0 0.0 0.0 21.44895843930827 -60.99628076616417 -15.333887631597527 118.42244175848259 -6.0450154466904064e-15 -1.4709044506485178e-14 0.0 0.0 0.0 0.0 0.0 -4.472655020808071e-16 0.124132830341802 -6.563601846996484 2.4515171376049545 0.5734714305360522 22.97936125962458 -2.3460769560118457 0.0 0.0 0.0
0.0 0.0 825.99449341317 28.356128601415694 -0.29799189303762647 1.896214300293089 0.0 0.0 -4.969616689786745e-17 0.24527685454049133 -12.554384166194003 -0.7790518365957227 -0.8777439950026624 24.788798268825865 0.5631690518107857 0.0 0.0 0.0 0.0 0.0 -4.969616689786745e-17 0.12191422795333029 -6.373666835329525 6.443625505399823 7.751594655163075 -3.9666006254337686e-16 2.6873240610111666e-17 -6.361109362927033e-15 0.0 0.0 -60.28358610704499 56.981304793458015 87.61781995008965 -92.60942009076409 -8.891217928181468e-15 -4.701651260076544e-15 0.0 0.0 -3.1805546814635168e-15 -6.361109362927033e-15 0.0 0.0 -12.901812601036283 -6.4363059200730515 3.9253958921972765 -6.361109362927033e-15 0.0 0.0 21.400934359895093 -61.087197964344426 -15.318485068118726 118.32143647024826 7.662500973239229e-15 1.1983515363644251e-14 0.0 0.0 0.0 0.0 0.0 -4.969616689786745e-17 0.12565281956865415 -6.668144159083374 2.5933198367720776 0.640481285767744 23.154044542652077 -2.390277725107969 0.0 0.0 7.951386703658792e-16
